<?xml version="1.0" encoding="UTF-8" standalone="no"?>
<!-- Created with Inkscape (http://www.inkscape.org/) -->

<svg
   width="156.34148mm"
   height="117.3023mm"
   viewBox="0 0 156.34148 117.3023"
   version="1.1"
   id="svg5"
   xmlns="http://www.w3.org/2000/svg"
   xmlns:svg="http://www.w3.org/2000/svg">
  <defs
     id="defs2" />
  <g
     id="layer1"
     transform="translate(19.793972,-72.310745)">
    <rect
       style="opacity:1;fill:#ffffff;fill-opacity:1;stroke:none;stroke-width:4.16335;stroke-linecap:round;stroke-linejoin:miter;stroke-miterlimit:4;stroke-dasharray:none;stroke-opacity:1;paint-order:markers fill stroke"
       id="rect4181"
       width="156.19759"
       height="117.3023"
       x="-19.793972"
       y="72.310745"
       ry="58.651146" />
    <path
       id="circle345"
       style="opacity:1;fill:#710e33;fill-opacity:1;stroke:none;stroke-width:4.30001;stroke-linecap:round;stroke-linejoin:miter;stroke-miterlimit:4;stroke-dasharray:none;stroke-opacity:1;paint-order:markers fill stroke"
       d="m 75.420719,78.232434 c -1.858086,0.0068 -4.855913,0.006 -6.987687,0.05116 v -0.03669 H 53.364185 V 184.15775 h 14.323673 c 0.01734,0.001 0.03476,0.004 0.05219,0.004 2.745063,-0.003 5.123,0.0196 7.680668,0.0289 29.259244,-1.2e-4 52.978564,-23.71944 52.978684,-52.97868 1.6e-4,-29.25944 -23.71924,-52.979074 -52.978684,-52.979196 z m 0,14.970146 c 20.99177,6.8e-5 38.008981,17.01728 38.009051,38.00905 -7e-5,20.99177 -17.017281,38.00898 -38.009051,38.00905 -2.346883,-0.008 -4.685891,-0.23536 -6.987687,-0.67386 V 93.87644 c 2.301796,-0.438507 4.640804,-0.666134 6.987687,-0.67386 z" />
    <path
       id="path181"
       style="opacity:1;fill:#ff6600;fill-opacity:1;stroke:none;stroke-width:4.30001;stroke-linecap:round;stroke-linejoin:miter;stroke-miterlimit:4;stroke-dasharray:none;stroke-opacity:1;paint-order:markers fill stroke"
       d="m 42.083219,78.232434 a 52.978901,52.978901 0 0 0 -52.979195,52.979196 52.978901,52.978901 0 0 0 52.979195,52.97868 52.978901,52.978901 0 0 0 52.978679,-52.97868 52.978901,52.978901 0 0 0 -0.225826,-4.87205 l -15.057996,0.0196 a 38.009174,38.009174 0 0 1 0.314193,4.85242 38.009174,38.009174 0 0 1 -38.00905,38.00905 A 38.009174,38.009174 0 0 1 4.0741699,131.21163 38.009174,38.009174 0 0 1 42.083219,93.20258 38.009174,38.009174 0 0 1 68.794767,104.18124 L 79.258728,93.46923 A 52.978901,52.978901 0 0 0 42.083219,78.232434 Z" />
    <path
       id="path2843"
       style="opacity:1;fill:#008080;fill-opacity:1;stroke:none;stroke-width:4.30001;stroke-linecap:round;stroke-linejoin:miter;stroke-miterlimit:4;stroke-dasharray:none;stroke-opacity:1;paint-order:markers fill stroke"
       d="M 42.083219,78.232434 A 52.978901,52.978901 0 0 0 -10.895976,131.21163 52.978901,52.978901 0 0 0 42.083219,184.19031 52.978901,52.978901 0 0 0 79.220487,168.9778 L 67.536963,159.41249 A 38.009174,38.009174 0 0 1 42.083219,169.22068 38.009174,38.009174 0 0 1 4.0741699,131.21163 38.009174,38.009174 0 0 1 42.083219,93.20258 38.009174,38.009174 0 0 1 68.79425,104.18124 L 79.258728,93.46923 A 52.978901,52.978901 0 0 0 42.083219,78.232434 Z" />
    <rect
       style="opacity:1;fill:#ff6600;fill-opacity:1;stroke:none;stroke-width:4.04568;stroke-linecap:round;stroke-linejoin:miter;stroke-miterlimit:4;stroke-dasharray:none;stroke-opacity:1;paint-order:markers fill stroke"
       id="rect2897"
       width="15.068581"
       height="48.389553"
       x="-141.42741"
       y="43.748913"
       transform="rotate(-90)" />
    <circle
       style="opacity:1;fill:#ffffff;fill-opacity:1;stroke:none;stroke-width:2.43533;stroke-linecap:round;stroke-linejoin:miter;stroke-miterlimit:4;stroke-dasharray:none;stroke-opacity:1;paint-order:markers fill stroke"
       id="path4965"
       cx="130.18434"
       cy="78.698837"
       r="6.3631682" />
  </g>
</svg>
